HIERARCHY
ROOT Hips
{
  OFFSET 5.84602e-005 68.8428 3.50346
  CHANNELS 6 Xposition Yposition Zposition Zrotation Xrotation Yrotation
  JOINT Spine
  {
    OFFSET 0 8.597 -4.6522
    CHANNELS 3 Zrotation Xrotation Yrotation
    JOINT Spine1
    {
      OFFSET 0 7.8454 0.4098
      CHANNELS 3 Zrotation Xrotation Yrotation
      JOINT Spine2
      {
        OFFSET 0 9.7078 -2.1609
        CHANNELS 3 Zrotation Xrotation Yrotation
        JOINT Neck
        {
          OFFSET 0 21.8761 -0.4549
          CHANNELS 3 Zrotation Xrotation Yrotation
          JOINT Head
          {
            OFFSET 0 12.3537 3.3602
            CHANNELS 3 Zrotation Xrotation Yrotation
            End Site
            {
              OFFSET 0.0001 18.9506 0.5657
            }
          }
        }
        JOINT LeftShoulder
        {
          OFFSET 2.2086 21.1115 7.2329
          CHANNELS 3 Zrotation Xrotation Yrotation
          JOINT LeftArm
          {
            OFFSET 13.1193 3.0282 -4.8998
            CHANNELS 3 Zrotation Xrotation Yrotation
            JOINT LeftForeArm
            {
              OFFSET 27.4081 -0.0973053 -0.2375
              CHANNELS 3 Zrotation Xrotation Yrotation
              JOINT LeftHand
              {
                OFFSET 22.8641 0.0662994 -0.1369
                CHANNELS 3 Zrotation Xrotation Yrotation
                JOINT LeftHandIndex1
                {
                  OFFSET 8.8614 0.775009 2.4612
                  CHANNELS 3 Zrotation Xrotation Yrotation
                  JOINT LeftHandIndex2
                  {
                    OFFSET 3.3146 -0.808304 0.5841
                    CHANNELS 3 Zrotation Xrotation Yrotation
                    JOINT LeftHandIndex3
                    {
                      OFFSET 2.2628 -0.552002 0.3989
                      CHANNELS 3 Zrotation Xrotation Yrotation
                      End Site
                      {
                        OFFSET 1.6102 -0.4807 0.2612
                      }
                    }
                  }
                }
                JOINT LeftHandMiddle1
                {
                  OFFSET 8.9937 0.895004 0.2143
                  CHANNELS 3 Zrotation Xrotation Yrotation
                  JOINT LeftHandMiddle2
                  {
                    OFFSET 4.0984 0.0113983 -0.0242
                    CHANNELS 3 Zrotation Xrotation Yrotation
                    JOINT LeftHandMiddle3
                    {
                      OFFSET 2.2716 0.00689697 -0.0138001
                      CHANNELS 3 Zrotation Xrotation Yrotation
                      End Site
                      {
                        OFFSET 2.0404 -0.1441 0.0027
                      }
                    }
                  }
                }
                JOINT LeftHandRing1
                {
                  OFFSET 8.5234 0.597198 -2.0164
                  CHANNELS 3 Zrotation Xrotation Yrotation
                  JOINT LeftHandRing2
                  {
                    OFFSET 3.7188 -0.188293 -0.2328
                    CHANNELS 3 Zrotation Xrotation Yrotation
                    JOINT LeftHandRing3
                    {
                      OFFSET 2.1191 -0.106598 -0.1332
                      CHANNELS 3 Zrotation Xrotation Yrotation
                      End Site
                      {
                        OFFSET 1.8737 -0.2304 -0.0886
                      }
                    }
                  }
                }
                JOINT LeftHandPinky1
                {
                  OFFSET 7.9094 -0.601089 -3.4825
                  CHANNELS 3 Zrotation Xrotation Yrotation
                  JOINT LeftHandPinky2
                  {
                    OFFSET 2.2874 -0.477005 -0.6314
                    CHANNELS 3 Zrotation Xrotation Yrotation
                    JOINT LeftHandPinky3
                    {
                      OFFSET 1.6774 -0.349396 -0.4633
                      CHANNELS 3 Zrotation Xrotation Yrotation
                      End Site
                      {
                        OFFSET 1.4888 -0.4091 -0.3416
                      }
                    }
                  }
                }
                JOINT LeftHandThumb1
                {
                  OFFSET 1.833 -1.3875 1.3896
                  CHANNELS 3 Zrotation Xrotation Yrotation
                  JOINT LeftHandThumb2
                  {
                    OFFSET 3.4129 -1.121 2.5732
                    CHANNELS 3 Zrotation Xrotation Yrotation
                    JOINT LeftHandThumb3
                    {
                      OFFSET 2.2474 -0.804199 1.6192
                      CHANNELS 3 Zrotation Xrotation Yrotation
                      End Site
                      {
                        OFFSET 1.6527 -0.5689 1.1317
                      }
                    }
                  }
                }
              }
            }
          }
        }
        JOINT RightShoulder
        {
          OFFSET -2.2086 21.1115 7.2329
          CHANNELS 3 Zrotation Xrotation Yrotation
          JOINT RightArm
          {
            OFFSET -13.1216 3.0287 -4.9007
            CHANNELS 3 Zrotation Xrotation Yrotation
            JOINT RightForeArm
            {
              OFFSET -27.4081 -0.0973053 -0.2375
              CHANNELS 3 Zrotation Xrotation Yrotation
              JOINT RightHand
              {
                OFFSET -22.8641 0.0664063 -0.1369
                CHANNELS 3 Zrotation Xrotation Yrotation
                JOINT RightHandIndex1
                {
                  OFFSET -8.8614 0.774994 2.4612
                  CHANNELS 3 Zrotation Xrotation Yrotation
                  JOINT RightHandIndex2
                  {
                    OFFSET -3.3146 -0.808304 0.5841
                    CHANNELS 3 Zrotation Xrotation Yrotation
                    JOINT RightHandIndex3
                    {
                      OFFSET -2.2628 -0.552002 0.3989
                      CHANNELS 3 Zrotation Xrotation Yrotation
                      End Site
                      {
                        OFFSET -1.6102 -0.4807 0.2612
                      }
                    }
                  }
                }
                JOINT RightHandMiddle1
                {
                  OFFSET -8.9937 0.894989 0.2143
                  CHANNELS 3 Zrotation Xrotation Yrotation
                  JOINT RightHandMiddle2
                  {
                    OFFSET -4.0984 0.0113983 -0.0242
                    CHANNELS 3 Zrotation Xrotation Yrotation
                    JOINT RightHandMiddle3
                    {
                      OFFSET -2.2716 0.00691223 -0.0138001
                      CHANNELS 3 Zrotation Xrotation Yrotation
                      End Site
                      {
                        OFFSET -2.0404 -0.1441 0.0027
                      }
                    }
                  }
                }
                JOINT RightHandRing1
                {
                  OFFSET -8.5234 0.597198 -2.0164
                  CHANNELS 3 Zrotation Xrotation Yrotation
                  JOINT RightHandRing2
                  {
                    OFFSET -3.7188 -0.188309 -0.2328
                    CHANNELS 3 Zrotation Xrotation Yrotation
                    JOINT RightHandRing3
                    {
                      OFFSET -2.1191 -0.106598 -0.1332
                      CHANNELS 3 Zrotation Xrotation Yrotation
                      End Site
                      {
                        OFFSET -1.8737 -0.2304 -0.0886
                      }
                    }
                  }
                }
                JOINT RightHandPinky1
                {
                  OFFSET -7.9094 -0.601105 -3.4825
                  CHANNELS 3 Zrotation Xrotation Yrotation
                  JOINT RightHandPinky2
                  {
                    OFFSET -2.2874 -0.477005 -0.6314
                    CHANNELS 3 Zrotation Xrotation Yrotation
                    JOINT RightHandPinky3
                    {
                      OFFSET -1.6774 -0.349396 -0.4633
                      CHANNELS 3 Zrotation Xrotation Yrotation
                      End Site
                      {
                        OFFSET -1.4888 -0.4091 -0.3416
                      }
                    }
                  }
                }
                JOINT RightHandThumb1
                {
                  OFFSET -1.833 -1.38751 1.3896
                  CHANNELS 3 Zrotation Xrotation Yrotation
                  JOINT RightHandThumb2
                  {
                    OFFSET -3.41299 -1.12099 2.5732
                    CHANNELS 3 Zrotation Xrotation Yrotation
                    JOINT RightHandThumb3
                    {
                      OFFSET -2.24741 -0.804108 1.6192
                      CHANNELS 3 Zrotation Xrotation Yrotation
                      End Site
                      {
                        OFFSET -1.6527 -0.5689 1.1317
                      }
                    }
                  }
                }
              }
            }
          }
        }
      }
    }
  }
  JOINT RightUpLeg
  {
    OFFSET -9.1966 3.8861 -0.7581
    CHANNELS 3 Zrotation Xrotation Yrotation
    JOINT RightLeg
    {
      OFFSET -0.7359 -41.0265 0
      CHANNELS 3 Zrotation Xrotation Yrotation
      JOINT RightFoot
      {
        OFFSET 0 -40.2855 0
        CHANNELS 3 Zrotation Xrotation Yrotation
        JOINT RightToeBase
        {
          OFFSET 0 -5.6122 11.7359
          CHANNELS 3 Zrotation Xrotation Yrotation
          End Site
          {
            OFFSET 0 0 7.8731
          }
        }
      }
    }
  }
  JOINT LeftUpLeg
  {
    OFFSET 9.1965 3.8864 -0.7581
    CHANNELS 3 Zrotation Xrotation Yrotation
    JOINT LeftLeg
    {
      OFFSET 0.7359 -41.0268 0
      CHANNELS 3 Zrotation Xrotation Yrotation
      JOINT LeftFoot
      {
        OFFSET 0 -40.2855 0
        CHANNELS 3 Zrotation Xrotation Yrotation
        JOINT LeftToeBase
        {
          OFFSET 0 -5.6122 11.7359
          CHANNELS 3 Zrotation Xrotation Yrotation
          End Site
          {
            OFFSET 0 0 7.8731
          }
        }
      }
    }
  }
}
MOTION
Frames:	5
Frame Time:	0.0333333
5.84602e-005 68.8428 3.50346 0 0 -0 0 0 -0 0 0 -0 0 0 -0 -1.6278e-010 1.76049e-022 0.00599323 4.72659e-027 -3.2771e-030 -0 -0 0 0.00599323 0 0 -0 0 0 -0 0 0 -0 0 0 -0 0 0 -0 0 0 -0 0 0 -0 -0.0146107 -8.87602e-005 -2.63531e-007 1.64822e-018 1.21329e-020 -0 0 0 -0 -0.0187535 -0.00117581 5.9011e-005 9.7483e-018 0 1.55301e-018 0 0 -0 -0.0122987 -0.00325603 0.000676934 4.03166e-018 0 -1.55301e-018 0 0 -0 0 0 -0 0 0 -0 -0 0 0.00599323 0 0 -0 0 0 -0 0 0 -0 0 0 -0 0 0 -0 0 0 -0 0 0 -0 0.0149956 -9.10983e-005 2.64135e-007 5.59203e-018 0 1.55301e-018 0 0 -0 0.0189987 -0.0011912 -5.94362e-005 -6.81641e-018 5.82377e-019 7.76503e-019 0 0 -0 0.0122408 -0.00324051 -0.000673758 -6.2816e-018 0 -7.76503e-019 0 0 -0 0 0 -0 0 0 -0 3.39842 1.33031 -0.0637918 -5.65207e-008 0.834868 -0.000436188 -3.39935 -2.16518 -0.0642563 -8.89002e-024 -1.18485e-023 -1.48106e-024 -3.39844 1.35642 0.0640283 -3.18788e-007 0.782166 -0.000588827 3.39931 -2.13858 0.0634662 1.1399e-023 0 -0 
42.2228 27.6493 42.9539 0 68.1914 -0 -0.439442 11.3434 -0.011207 -0.904044 22.6865 0.0705646 -0.904043 22.6865 0.0705638 -9.80008e-007 -0.46666 9.44684e-007 -0.0148366 -0.469087 -0.00474226 -14.928 -3.74332 4.52887 36.2524 -26.5127 -73.739 3.82192 -10.9683 -15.1745 63.6349 0.0309198 -0.0541261 3.18055e-015 -1.59028e-015 -1.59028e-015 9.54166e-015 -1.59028e-015 1.59028e-015 9.54166e-015 1.59028e-015 -1.59028e-015 3.18055e-015 -1.59028e-015 -1.59028e-015 -0.0145855 -8.9991e-005 -8.0828e-007 9.96159e-008 -8.05594e-008 -9.42362e-007 3.18055e-015 -1.59028e-015 -1.59028e-015 -0.0187381 -0.00117509 5.5265e-005 3.18055e-015 -1.35174e-014 -4.77083e-015 3.18055e-015 -1.59028e-015 -1.59028e-015 -0.012194 -0.00322838 0.000677941 3.18055e-015 7.95139e-016 -1.59028e-015 3.18055e-015 -1.59028e-015 -1.59028e-015 9.54166e-015 -1.59028e-015 1.59028e-015 9.54166e-015 1.59028e-015 -1.59028e-015 14.9011 -3.73844 -4.49384 -36.2564 -26.5018 73.7038 -3.82603 -10.9686 15.1703 -63.6433 0.0224633 0.0568176 3.53113e-031 6.36111e-015 -3.18055e-015 1.98626e-031 7.15625e-015 -1.59028e-015 2.20695e-031 7.95139e-015 -1.59028e-015 3.53113e-031 6.36111e-015 -3.18055e-015 0.0149995 -9.21166e-005 3.56234e-007 3.18055e-015 2.38542e-015 -4.77083e-015 3.53113e-031 6.36111e-015 -3.18055e-015 0.0190291 -0.00119342 -6.15364e-005 -3.18055e-015 -1.59028e-015 -4.77083e-015 3.53113e-031 6.36111e-015 -3.18055e-015 0.0122476 -0.00324231 -0.000670057 6.36111e-015 1.59028e-015 -3.18055e-015 3.53113e-031 6.36111e-015 -3.18055e-015 1.98626e-031 7.15625e-015 -1.59028e-015 2.20695e-031 7.95139e-015 -1.59028e-015 -21.2402 -70.1177 -26.5191 -169.024 73.3805 168.1 -12.4828 51.7077 3.8129 -3.97569e-016 -3.18055e-015 -7.95139e-016 21.1379 -70.1334 26.3179 169.39 73.3817 -168.435 12.4663 51.6948 -3.83728 1.1045e-007 -1.67748e-006 3.68739e-007 
39.7391 29.919 40.3461 0 64.8852 -0 -0.410187 10.2057 -0.0236552 -0.836457 20.4113 0.0290514 -0.836457 20.4113 0.0290509 -4.14113e-007 -0.723859 -4.42923e-008 -0.0679115 -0.761905 -0.0218401 -14.5632 -2.28976 5.02104 35.7303 -28.4375 -70.0586 3.76076 -10.3648 -14.2522 59.4783 0.142 -0.246963 1.82736e-006 -4.30656e-007 -7.99099e-008 -1.11453e-006 -2.44732e-007 6.17495e-006 1.65226e-006 8.89545e-007 -6.05614e-006 1.82736e-006 -4.30656e-007 -7.99099e-008 -0.0145619 -8.71036e-005 -3.37951e-006 1.82732e-006 -4.30646e-007 -7.9966e-008 1.82736e-006 -4.30656e-007 -7.99099e-008 -0.018792 -0.001177 6.1758e-005 1.64982e-006 8.90388e-007 -6.05601e-006 1.82736e-006 -4.30656e-007 -7.99099e-008 -0.012215 -0.00323303 0.000668211 1.65055e-006 8.89771e-007 -6.05601e-006 1.82736e-006 -4.30656e-007 -7.99099e-008 -1.11453e-006 -2.44732e-007 6.17495e-006 1.65226e-006 8.89545e-007 -6.05614e-006 14.4511 -2.2652 -4.84613 -35.7193 -28.3798 69.961 -3.76458 -10.3651 14.2483 -59.5006 0.103485 0.259447 3.18055e-015 4.77083e-015 -0 4.41391e-032 1.59028e-015 -1.59028e-015 8.82781e-032 3.18055e-015 -1.59028e-015 3.18055e-015 4.77083e-015 -0 0.0150325 -9.27126e-005 -2.63869e-006 -3.18055e-015 2.38542e-015 -0 3.18055e-015 4.77083e-015 -0 0.0189906 -0.00119114 -6.06452e-005 3.18055e-015 -3.18055e-015 1.59028e-015 3.18055e-015 4.77083e-015 -0 0.0123464 -0.00326836 -0.000680777 -0 -2.38542e-015 -0 3.18055e-015 4.77083e-015 -0 4.41391e-032 1.59028e-015 -1.59028e-015 8.82781e-032 3.18055e-015 -1.59028e-015 -16.4003 -67.2619 -21.7584 -165.245 79.3145 164.628 -11.6982 48.3289 3.43936 -3.62412e-007 3.25088e-006 1.81164e-008 16.3325 -67.2757 21.5923 165.771 79.3186 -165.123 11.6809 48.3171 -3.46099 -2.03804e-007 9.87189e-009 6.2583e-008 
39.7391 30.0291 40.1572 0 65.5514 -0 -0.408766 9.75748 -0.0301074 -0.830758 19.515 0.0119118 -0.830757 19.515 0.0119112 1.16996e-007 -0.992913 1.94093e-007 -0.119 -1.06474 -0.0385511 -15.0475 -1.12813 5.74923 35.8085 -28.6371 -70.3984 3.76074 -10.3648 -14.2522 59.088 0.249992 -0.431333 5.00173e-007 -1.12301e-007 -5.35338e-006 -2.36477e-006 -2.13315e-007 -4.36391e-008 8.51123e-007 2.88695e-007 -8.84666e-006 5.00173e-007 -1.12301e-007 -5.35338e-006 -0.0145906 -8.56506e-005 -3.65977e-006 4.9959e-007 -1.11623e-007 -5.35339e-006 5.00173e-007 -1.12301e-007 -5.35338e-006 -0.0187358 -0.00117631 6.21506e-005 8.5275e-007 2.90249e-007 -8.84663e-006 5.00173e-007 -1.12301e-007 -5.35338e-006 -0.012248 -0.00324155 0.00067762 8.51998e-007 2.89933e-007 -8.84671e-006 5.00173e-007 -1.12301e-007 -5.35338e-006 -2.36477e-006 -2.13315e-007 -4.36391e-008 8.51123e-007 2.88695e-007 -8.84666e-006 14.8511 -1.0828 -5.43839 -35.7841 -28.5385 70.242 -3.76459 -10.3651 14.2483 -59.1239 0.1826 0.453453 5.15355e-007 -6.6255e-007 1.2582e-007 -1.52192e-006 1.40164e-006 3.99702e-006 5.15355e-007 -6.6255e-007 1.2582e-007 5.15355e-007 -6.6255e-007 1.2582e-007 0.0150184 -9.09735e-005 -3.26606e-006 5.15343e-007 -6.62534e-007 1.25906e-007 5.15355e-007 -6.6255e-007 1.2582e-007 0.0190085 -0.00119312 -6.70869e-005 5.15341e-007 -6.62528e-007 1.25925e-007 5.15355e-007 -6.6255e-007 1.2582e-007 0.0123045 -0.00325509 -0.000677212 5.15352e-007 -6.62531e-007 1.25877e-007 5.15355e-007 -6.6255e-007 1.2582e-007 -1.52192e-006 1.40164e-006 3.99702e-006 5.15355e-007 -6.6255e-007 1.2582e-007 -17.0174 -68.1676 -22.3944 -165.248 79.3109 164.634 -11.6982 48.3282 3.4392 -2.43169e-008 -5.19213e-010 -4.38835e-007 16.9329 -68.1825 22.2107 165.772 79.3175 -165.124 11.6809 48.3163 -3.46079 1.59028e-015 -6.36111e-015 7.95139e-016 
39.7391 30.14 39.9689 0 66.2177 -0 -0.407266 9.3065 -0.0365354 -0.825121 18.6132 -0.00508271 -0.825121 18.6132 -0.0050826 2.95247e-007 -1.26206 -3.2373e-007 -0.170223 -1.36778 -0.0555471 -15.5471 0.028578 6.48794 35.8855 -28.8372 -70.7386 3.76075 -10.3648 -14.2522 58.6981 0.359247 -0.614984 1.28835e-006 -1.07615e-006 -1.95668e-007 -1.28835e-006 1.07615e-006 1.95668e-007 1.28835e-006 -1.07615e-006 -1.95668e-007 1.28835e-006 -1.07615e-006 -1.95668e-007 -0.0146069 -8.40679e-005 -8.40017e-006 1.28832e-006 -1.07613e-006 -1.95806e-007 1.28835e-006 -1.07615e-006 -1.95668e-007 -0.0187798 -0.00117629 5.82335e-005 1.28831e-006 -1.07612e-006 -1.95857e-007 1.28835e-006 -1.07615e-006 -1.95668e-007 -0.0122705 -0.00324741 0.000675197 1.28832e-006 -1.07614e-006 -1.95818e-007 1.28835e-006 -1.07615e-006 -1.95668e-007 -1.28835e-006 1.07615e-006 1.95668e-007 1.28835e-006 -1.07615e-006 -1.95668e-007 15.2636 0.096633 -6.03944 -35.848 -28.6976 70.5231 -3.76458 -10.3651 14.2483 -58.7476 0.263003 0.646983 -4.41391e-032 1.59028e-015 1.59028e-015 3.18055e-015 7.95139e-016 1.59028e-015 3.18055e-015 7.95139e-016 -0 -4.41391e-032 1.59028e-015 1.59028e-015 0.014946 -9.03218e-005 5.84252e-007 4.41391e-032 7.95139e-016 -3.18055e-015 -4.41391e-032 1.59028e-015 1.59028e-015 0.0189343 -0.00118686 -5.72333e-005 9.54166e-015 -2.38542e-015 -1.59028e-015 -4.41391e-032 1.59028e-015 1.59028e-015 0.0122501 -0.00324169 -0.000668207 6.36111e-015 4.77083e-015 3.18055e-015 -4.41391e-032 1.59028e-015 1.59028e-015 3.18055e-015 7.95139e-016 1.59028e-015 3.18055e-015 7.95139e-016 -0 -17.6662 -69.0655 -23.0637 -165.245 79.315 164.627 -11.6982 48.3273 3.439 3.05248e-007 1.50245e-008 -9.53249e-008 17.5715 -69.0833 22.8684 165.768 79.3216 -165.118 11.6809 48.3154 -3.46061 -3.70061e-007 -7.95148e-007 -1.0016e-007 
